<svg width="14" height="92" viewBox="0 0 14 92" fill="none" xmlns="http://www.w3.org/2000/svg">
<g clip-path="url(#clip0_433_685)">
<path d="M13.8375 3.96218L5.81538 11.9826C5.60037 12.1968 5.25227 12.1968 5.03813 11.9826L0.159632 7.0729C-0.0545126 6.85789 -0.0545126 6.5085 0.159632 6.29479L1.32529 5.13C1.5403 4.91542 1.88839 4.91542 2.10253 5.13L5.43087 8.48045L11.8933 2.01754C12.1075 1.8034 12.4556 1.8034 12.6715 2.01754L13.8371 3.18406C14.0534 3.39864 14.0534 3.74803 13.8375 3.96218Z" fill="#E53935"/>
</g>
<g clip-path="url(#clip1_433_685)">
<path d="M13.8375 29.9622L5.81538 37.9826C5.60037 38.1968 5.25227 38.1968 5.03813 37.9826L0.159632 33.0729C-0.0545126 32.8579 -0.0545126 32.5085 0.159632 32.2948L1.32529 31.13C1.5403 30.9154 1.88839 30.9154 2.10253 31.13L5.43087 34.4804L11.8933 28.0175C12.1075 27.8034 12.4556 27.8034 12.6715 28.0175L13.8371 29.1841C14.0534 29.3986 14.0534 29.748 13.8375 29.9622Z" fill="#E53935"/>
</g>
<g clip-path="url(#clip2_433_685)">
<path d="M13.8375 55.9622L5.81538 63.9826C5.60037 64.1968 5.25227 64.1968 5.03813 63.9826L0.159632 59.0729C-0.0545126 58.8579 -0.0545126 58.5085 0.159632 58.2948L1.32529 57.13C1.5403 56.9154 1.88839 56.9154 2.10253 57.13L5.43087 60.4804L11.8933 54.0175C12.1075 53.8034 12.4556 53.8034 12.6715 54.0175L13.8371 55.1841C14.0534 55.3986 14.0534 55.748 13.8375 55.9622Z" fill="#E53935"/>
</g>
<g clip-path="url(#clip3_433_685)">
<path d="M13.8375 81.9622L5.81538 89.9826C5.60037 90.1968 5.25227 90.1968 5.03813 89.9826L0.159632 85.0729C-0.0545126 84.8579 -0.0545126 84.5085 0.159632 84.2948L1.32529 83.13C1.5403 82.9154 1.88839 82.9154 2.10253 83.13L5.43087 86.4804L11.8933 80.0175C12.1075 79.8034 12.4556 79.8034 12.6715 80.0175L13.8371 81.1841C14.0534 81.3986 14.0534 81.748 13.8375 81.9622Z" fill="#E53935"/>
</g>
<defs>
<clipPath id="clip0_433_685">
<rect width="14" height="14" fill="white"/>
</clipPath>
<clipPath id="clip1_433_685">
<rect width="14" height="14" fill="white" transform="translate(0 26)"/>
</clipPath>
<clipPath id="clip2_433_685">
<rect width="14" height="14" fill="white" transform="translate(0 52)"/>
</clipPath>
<clipPath id="clip3_433_685">
<rect width="14" height="14" fill="white" transform="translate(0 78)"/>
</clipPath>
</defs>
</svg>
