<svg width="60" height="60" viewBox="0 0 60 60" fill="none" xmlns="http://www.w3.org/2000/svg">
<circle cx="30" cy="30" r="30" fill="#F5C300"/>
<path d="M44.1199 43.3256C43.2612 42.6675 42.3321 42.1066 41.3498 41.6531L37.838 40.0317C37.6643 40.5268 37.2102 41.6346 36.3128 42.7486C35.9335 43.2194 35.5197 43.6366 35.0752 43.9999H44.9997L44.1199 43.3256Z" fill="#262626"/>
<path d="M23.687 42.7486C22.7895 41.6346 22.3354 40.5268 22.1617 40.0317L18.65 41.6531C17.6676 42.1066 16.7386 42.6675 15.8798 43.3256L15 43.9999H24.9245C24.4803 43.6366 24.0662 43.2196 23.687 42.7486Z" fill="#262626"/>
<path d="M35.7212 38.492V38.292C34.1723 39.5941 32.176 40.3796 29.9996 40.3796C27.8231 40.3796 25.8268 39.5941 24.2782 38.292V38.492C24.2782 38.834 24.0777 39.1473 23.7676 39.2904C23.7676 39.2904 25.1239 44.0001 29.9998 44.0001C34.8754 44.0001 36.2318 39.2904 36.2318 39.2904C35.9214 39.1473 35.7212 38.834 35.7212 38.492Z" fill="#262626"/>
<path d="M30 38.621C33.9418 38.621 37.1484 35.413 37.1484 31.4696V28.3037H22.8516V31.4696C22.8516 35.413 26.0584 38.621 30 38.621Z" fill="#262626"/>
<path d="M20.9973 26.5446H39.0021C39.4875 26.5446 39.881 26.1509 39.881 25.6655C39.881 25.1798 39.4875 24.7861 39.0021 24.7861H38.2637V23.877C38.2637 21.043 36.8309 18.5381 34.6522 17.0479V20.7578C34.6522 21.2435 34.2587 21.6372 33.7733 21.6372C33.288 21.6372 32.8943 21.2435 32.8943 20.7578V16.4887C32.8943 16.3717 32.9177 16.26 32.9594 16.158C32.3018 15.9048 31.6041 15.7334 30.8786 15.6562V21.8363C30.8786 22.322 30.4849 22.7157 29.9997 22.7157C29.5142 22.7157 29.1208 22.322 29.1208 21.8363V15.6562C28.3952 15.7332 27.6978 15.9048 27.0405 16.1577C27.0819 16.26 27.1052 16.3715 27.1052 16.4887V20.7578C27.1052 21.2435 26.7118 21.6372 26.2263 21.6372C25.7409 21.6372 25.3474 21.2435 25.3474 20.7578V17.0474C23.1685 18.5376 21.7354 21.043 21.7354 23.877V24.7861H20.9971C20.5118 24.7861 20.1182 25.1798 20.1182 25.6655C20.1182 26.1509 20.5118 26.5446 20.9973 26.5446Z" fill="#262626"/>
<path d="M34.6528 16.4887C34.6528 16.0031 34.2593 15.6094 33.7739 15.6094C33.4056 15.6094 33.0904 15.8364 32.96 16.1582C33.561 16.3896 34.1286 16.6892 34.6528 17.0479V16.4887Z" fill="#262626"/>
<path d="M26.2266 15.6094C25.7411 15.6094 25.3477 16.0031 25.3477 16.4887V17.0474C25.8718 16.6888 26.4394 16.3892 27.0405 16.1578C26.9098 15.8364 26.5948 15.6094 26.2266 15.6094Z" fill="#262626"/>
<path d="M30.8789 15.6564V14.8794C30.8789 14.3937 30.4855 14 30 14C29.5145 14 29.1211 14.3937 29.1211 14.8794V15.6564C29.4099 15.6255 29.7031 15.6095 30 15.6095C30.2969 15.6095 30.5901 15.6255 30.8789 15.6564Z" fill="#262626"/>
</svg>
