<svg width="60" height="60" viewBox="0 0 60 60" fill="none" xmlns="http://www.w3.org/2000/svg">
<circle cx="30" cy="30" r="30" fill="#F5C300"/>
<g clip-path="url(#clip0_2767_2)">
<path d="M33.9892 24.2188H24.3789V25.8531H33.9892V24.2188Z" fill="#262626"/>
<path d="M33.9892 27.0283H24.3789V28.6627H33.9892V27.0283Z" fill="#262626"/>
<path d="M33.9892 29.8438H24.3789V31.4781H33.9892V29.8438Z" fill="#262626"/>
<path d="M29.1779 32.6597H24.3789V34.294H29.1779V32.6597Z" fill="#262626"/>
<path d="M30.2241 38.2912H23.1847C22.8542 38.2912 22.5787 38.0218 22.5787 37.6852V23.0494C22.5787 22.7188 22.848 22.4434 23.1847 22.4434H35.1761C35.5067 22.4434 35.7821 22.7127 35.7821 23.0494V32.4577C36.3269 32.3291 36.9023 32.2557 37.4838 32.2557C38.0776 32.2557 38.6469 32.3291 39.1978 32.4577V20.05C39.1978 18.7768 38.1633 17.7423 36.8901 17.7423H32.9052C32.3971 16.1508 30.9097 15 29.1529 15C27.3961 15 25.9086 16.1508 25.4006 17.7423H21.4708C20.1976 17.7423 19.1631 18.7768 19.1631 20.05V39.6317C19.1631 40.9049 20.1976 41.9394 21.4708 41.9394H30.4628C30.2241 41.2171 30.0955 40.452 30.0955 39.6501C30.0955 39.1849 30.1445 38.7319 30.2241 38.2912ZM29.1529 17.5709C29.9119 17.5709 30.5302 18.1891 30.5302 18.9482C30.5302 19.7072 29.9119 20.3254 29.1529 20.3254C28.3939 20.3254 27.7756 19.7072 27.7756 18.9482C27.7756 18.183 28.3939 17.5709 29.1529 17.5709Z" fill="#262626"/>
<path d="M37.483 34.2881C34.5265 34.2881 32.127 36.6876 32.127 39.6441C32.127 42.6007 34.5265 45.0002 37.483 45.0002C40.4395 45.0002 42.8391 42.6007 42.8391 39.6441C42.8391 36.6876 40.4395 34.2881 37.483 34.2881ZM39.0255 41.7621C38.7929 42.0436 38.4869 42.2395 38.1318 42.3375C37.9788 42.3803 37.9054 42.4599 37.9176 42.619C37.9237 42.7782 37.9176 42.9373 37.9176 43.0965C37.9176 43.2373 37.8442 43.3107 37.7034 43.3169C37.532 43.323 37.3606 43.323 37.1953 43.3169C37.0484 43.3169 36.9749 43.2312 36.9749 43.0842C36.9749 42.9679 36.9749 42.8516 36.9688 42.7353C36.9688 42.4783 36.9566 42.4721 36.7117 42.4293C36.3995 42.3803 36.0874 42.3069 35.7997 42.1661C35.5732 42.0559 35.5487 42.0008 35.616 41.7621C35.665 41.5846 35.714 41.407 35.7691 41.2356C35.8303 41.0336 35.8854 41.0092 36.0751 41.1071C36.3934 41.2724 36.7301 41.3642 37.0851 41.407C37.3116 41.4376 37.5381 41.4132 37.7462 41.3213C38.138 41.15 38.1992 40.6909 37.8686 40.4215C37.7523 40.3297 37.6299 40.2624 37.4891 40.2012C37.1463 40.0481 36.7852 39.9318 36.4546 39.736C35.9282 39.4177 35.5916 38.983 35.6283 38.3403C35.6711 37.6119 36.0812 37.1589 36.7485 36.9141C37.0239 36.8161 37.0239 36.8161 37.0239 36.5284C37.0239 36.4305 37.0239 36.3326 37.0239 36.2346C37.03 36.0204 37.0668 35.9775 37.281 35.9714C37.3483 35.9714 37.4157 35.9714 37.483 35.9714C37.9421 35.9714 37.9421 35.9714 37.9482 36.4305C37.9482 36.7549 37.9482 36.7549 38.2726 36.81C38.5236 36.8467 38.7562 36.9202 38.9888 37.0243C39.1174 37.0794 39.1602 37.1712 39.1235 37.2997C39.0684 37.4956 39.0133 37.6976 38.946 37.8935C38.8848 38.0771 38.8235 38.1077 38.646 38.022C38.2849 37.8506 37.9115 37.7772 37.5136 37.7955C37.4095 37.8017 37.3055 37.8139 37.2137 37.8567C36.8709 38.0098 36.8158 38.3832 37.1096 38.6158C37.2565 38.7321 37.4279 38.8178 37.5993 38.8912C37.9054 39.0198 38.2114 39.1361 38.4991 39.2952C39.4234 39.8216 39.6683 40.9724 39.0255 41.7621Z" fill="#262626"/>
</g>
<defs>
<clipPath id="clip0_2767_2">
<rect width="30" height="30" fill="white" transform="translate(16 15)"/>
</clipPath>
</defs>
</svg>
