<svg width="40" height="40" viewBox="0 0 40 40" fill="none" xmlns="http://www.w3.org/2000/svg">
<circle cx="20" cy="20" r="19" stroke="#C4C4C4" stroke-width="2"/>
<path d="M18.0659 24.2501L14.665 21.0076L27.256 21.0076C27.6922 21.0076 28.05 20.6699 28.05 20.2484C28.05 19.8269 27.6922 19.4891 27.256 19.4891L14.665 19.4891L18.0658 16.2467C18.377 15.9499 18.377 15.4679 18.0658 15.1712L18.0658 15.1712C17.9106 15.0233 17.7076 14.9496 17.5052 14.9496C17.3028 14.9496 17.0998 15.0233 16.9446 15.1712L16.9446 15.1712L12.1834 19.7106C11.8722 20.0073 11.8722 20.4894 12.1834 20.7861L16.9447 25.3255C17.2546 25.6209 17.7561 25.6209 18.0659 25.3255C18.3771 25.0288 18.3771 24.5468 18.0659 24.2501Z" fill="#808080" stroke="#808080" stroke-width="0.1"/>
</svg>
