<svg width="100" height="100" viewBox="0 0 100 100" fill="none" xmlns="http://www.w3.org/2000/svg">
<circle cx="50" cy="50" r="50" fill="#1168AC"/>
<g clip-path="url(#clip0_2740_6)">
<path d="M57.7612 37.9646C57.6432 37.8455 57.4964 37.7593 57.3379 37.7093L47.7902 34.7115C43.9722 33.5126 41.4882 35.604 40.8191 36.2753C40.4286 36.6657 40.1297 37.0774 39.9765 37.4359L35.7234 47.4399C35.4798 48.0123 35.5628 48.775 35.9447 49.5356C36.4915 50.6218 37.4766 51.4047 38.6542 51.6866C39.9723 52.0026 41.3393 51.5739 42.4094 50.5048C42.6892 50.225 42.9275 49.9165 43.0679 49.6548L44.4977 47.0027C44.7328 46.5634 45.0743 46.108 45.4339 45.7485C46.6604 44.5208 47.2434 45.0825 47.4913 45.3208C49.6306 47.3857 60.8463 58.6493 60.8463 58.6493C61.2452 59.0482 61.1622 59.8046 60.6633 60.3024C60.1655 60.7992 59.408 60.8843 59.0102 60.4875L55.8592 57.3376C55.4528 56.9302 54.7975 56.9302 54.3911 57.3376C53.9847 57.7408 53.9847 58.3993 54.3911 58.8046L57.5421 61.9566C57.94 62.3534 57.857 63.1098 57.3591 63.6066C56.8613 64.1055 56.1028 64.1885 55.707 63.7917L52.555 60.6418C52.1486 60.2354 51.4912 60.2354 51.0869 60.6418C50.6805 61.045 50.6805 61.7035 51.0869 62.1098L54.2379 65.2608C54.6358 65.6587 54.5496 66.4151 54.0528 66.9129C53.556 67.4097 52.7997 67.4948 52.4007 67.0959L49.2497 63.946C48.8455 63.5406 48.187 63.5406 47.7817 63.946C47.3774 64.3513 47.3774 65.0098 47.7817 65.413L50.9327 68.565C51.3316 68.9639 51.2465 69.7203 50.7497 70.2182C50.2497 70.716 49.4933 70.8001 49.0965 70.4022L45.2605 66.5629C45.8083 65.7395 45.6594 64.5449 44.8466 63.7289C43.936 62.8194 42.535 62.7353 41.7244 63.5481C42.535 62.7364 42.4552 61.3375 41.5424 60.4258C40.6297 59.5152 39.2319 59.4312 38.4212 60.2418C39.2319 59.4312 39.1499 58.0333 38.2361 57.1227C37.3255 56.21 35.9277 56.127 35.1149 56.9376C35.9277 56.127 35.8436 54.7291 34.9319 53.8153C34.0788 52.9622 32.8075 52.8462 31.9809 53.4962L25.7694 47.2846C25.3641 46.8782 24.7056 46.8782 24.3003 47.2846C23.896 47.6889 23.896 48.3474 24.3003 48.7537L30.4959 54.9483L28.6587 56.7855C27.8481 57.595 27.93 58.9929 28.8438 59.9067C29.7544 60.8173 31.1522 60.9013 31.9639 60.0897C31.1522 60.9013 31.2352 62.2981 32.148 63.2109C33.0586 64.1204 34.4575 64.2066 35.2692 63.3949C34.4575 64.2066 34.5394 65.6034 35.4521 66.5151C36.3649 67.4278 37.7627 67.5108 38.5734 66.7002C37.7627 67.5097 37.8446 68.9065 38.7574 69.8203C39.6691 70.7309 41.0659 70.815 41.8786 70.0033L43.819 68.064L47.6285 71.8724C48.8444 73.0883 50.9008 73.0032 52.2177 71.6883C52.8592 71.0469 53.2018 70.2277 53.2496 69.4171C54.0603 69.3693 54.8805 69.0256 55.5209 68.3831C56.1634 67.7416 56.5081 66.9225 56.557 66.1119C57.3666 66.064 58.1836 65.7215 58.8282 65.0789C59.4697 64.4364 59.8133 63.6183 59.8601 62.8066C60.6718 62.7598 61.491 62.4173 62.1335 61.7726C63.4484 60.4577 63.5292 58.3982 62.3165 57.1844L60.7101 55.577L67.3057 48.9825C67.711 48.5782 67.711 47.9197 67.3057 47.5144L57.7612 37.9646Z" fill="white"/>
<path d="M73.3925 40.2859L64.9874 31.8807C64.1767 31.0691 62.8608 31.0691 62.0491 31.8807L59.1109 34.8168C58.3003 35.6275 58.3003 36.9434 59.1109 37.754L67.5171 46.1613C68.3288 46.9719 69.6447 46.9719 70.4553 46.1613L73.3925 43.2241C74.2021 42.4124 74.2021 41.0965 73.3925 40.2859ZM68.9809 44.5666C68.0405 44.5666 67.2767 43.8039 67.2767 42.8624C67.2767 41.9209 68.0405 41.1571 68.9809 41.1571C69.9224 41.1571 70.6862 41.9199 70.6862 42.8624C70.6851 43.8028 69.9224 44.5666 68.9809 44.5666Z" fill="white"/>
</g>
<defs>
<clipPath id="clip0_2740_6">
<rect width="50" height="50" fill="white" transform="translate(24 27)"/>
</clipPath>
</defs>
</svg>
