<svg width="40" height="40" viewBox="0 0 40 40" fill="none" xmlns="http://www.w3.org/2000/svg">
<circle cx="20" cy="20" r="19" transform="rotate(180 20 20)" stroke="#C4C4C4" stroke-width="2"/>
<path d="M21.9341 15.7499L25.335 18.9924L12.744 18.9924C12.3078 18.9924 11.95 19.3301 11.95 19.7516C11.95 20.1731 12.3078 20.5109 12.744 20.5109L25.335 20.5109L21.9342 23.7533C21.623 24.0501 21.623 24.5321 21.9342 24.8288L21.9342 24.8288C22.0894 24.9767 22.2924 25.0504 22.4948 25.0504C22.6972 25.0504 22.9002 24.9767 23.0554 24.8288L23.0554 24.8288L27.8166 20.2894C28.1278 19.9927 28.1278 19.5106 27.8166 19.2139L23.0553 14.6745C22.7454 14.3791 22.2439 14.3791 21.9341 14.6745C21.6229 14.9712 21.6229 15.4532 21.9341 15.7499Z" fill="#808080" stroke="#808080" stroke-width="0.1"/>
</svg>
