<svg width="172" height="12" viewBox="0 0 172 12" fill="none" xmlns="http://www.w3.org/2000/svg">
<ellipse cx="5.92403" cy="6.17089" rx="5.92403" ry="5.8291" fill="#91D9FC"/>
<path d="M38.0063 6.17089C38.0063 9.10649 35.5855 11.5 32.5822 11.5C29.579 11.5 27.1582 9.10649 27.1582 6.17089C27.1582 3.2353 29.579 0.841797 32.5822 0.841797C35.5855 0.841797 38.0063 3.2353 38.0063 6.17089Z" stroke="white"/>
<path d="M64.6645 6.17089C64.6645 9.10649 62.2437 11.5 59.2404 11.5C56.2372 11.5 53.8164 9.10649 53.8164 6.17089C53.8164 3.2353 56.2372 0.841797 59.2404 0.841797C62.2437 0.841797 64.6645 3.2353 64.6645 6.17089Z" stroke="white"/>
<path d="M91.3227 6.17089C91.3227 9.10649 88.9019 11.5 85.8986 11.5C82.8954 11.5 80.4746 9.10649 80.4746 6.17089C80.4746 3.2353 82.8954 0.841797 85.8986 0.841797C88.9019 0.841797 91.3227 3.2353 91.3227 6.17089Z" stroke="white"/>
<path d="M117.981 6.17089C117.981 9.10649 115.56 11.5 112.557 11.5C109.554 11.5 107.133 9.10649 107.133 6.17089C107.133 3.2353 109.554 0.841797 112.557 0.841797C115.56 0.841797 117.981 3.2353 117.981 6.17089Z" stroke="white"/>
<path d="M144.639 6.17089C144.639 9.10649 142.218 11.5 139.215 11.5C136.212 11.5 133.791 9.10649 133.791 6.17089C133.791 3.2353 136.212 0.841797 139.215 0.841797C142.218 0.841797 144.639 3.2353 144.639 6.17089Z" stroke="white"/>
<path d="M170.968 5.8291C170.968 8.76469 168.547 11.1582 165.544 11.1582C162.541 11.1582 160.12 8.76469 160.12 5.8291C160.12 2.8935 162.541 0.5 165.544 0.5C168.547 0.5 170.968 2.8935 170.968 5.8291Z" stroke="white"/>
</svg>
