<svg width="100" height="100" viewBox="0 0 100 100" fill="none" xmlns="http://www.w3.org/2000/svg">
<circle cx="50" cy="50" r="50" fill="#1168AC"/>
<g clip-path="url(#clip0_2740_7)">
<path d="M23.2792 35.624C22.3462 32.7962 23.8877 29.7361 26.7158 28.803C29.544 27.8698 32.6039 29.4117 33.5369 32.2396L44.1494 64.4041C43.1604 64.143 42.1086 64.0952 41.0586 64.2872L30.7844 33.1478C30.352 31.8374 28.9345 31.1232 27.6241 31.5556C26.3136 31.9879 25.5995 33.4055 26.0318 34.7159C26.2826 35.4759 25.8698 36.2955 25.1096 36.5463C24.3496 36.797 23.5301 36.3841 23.2792 35.624ZM65.0922 60.856L47.7044 66.5931C48.3214 67.2937 48.8106 68.1265 49.1212 69.0676C49.1322 69.1012 49.1384 69.1351 49.149 69.1688L66.0005 63.6086C66.7605 63.3579 67.1734 62.5383 66.9227 61.7783C66.6719 61.0181 65.8522 60.6052 65.0922 60.856ZM47.745 69.522C48.7302 72.5079 47.1082 75.727 44.1224 76.7122C41.1366 77.6974 37.9174 76.0755 36.9322 73.0897C35.947 70.1037 37.569 66.8847 40.5548 65.8995C43.5406 64.9142 46.7598 66.5362 47.745 69.522ZM45.0418 70.4138C44.5492 68.921 42.9397 68.1101 41.4467 68.6027C39.9538 69.0951 39.1429 70.7048 39.6354 72.1977C40.128 73.6906 41.7375 74.5015 43.2305 74.009C44.7234 73.5164 45.5343 71.9067 45.0418 70.4138ZM60.698 39.0384L66.6012 56.9303C66.7266 57.3103 66.5202 57.7201 66.1401 57.8455L47.5601 63.9758C47.1801 64.1012 46.7703 63.8947 46.645 63.5147L40.7417 45.6228C40.6163 45.2427 40.8228 44.833 41.2028 44.7076L59.7828 38.5772C60.1628 38.452 60.5726 38.6583 60.698 39.0384ZM58.2402 49.4317L51.9136 45.9509L48.9018 52.5129L50.8959 53.4306L52.1981 50.5918L54.5494 57.7186L56.7999 56.9761L54.4488 49.8504L57.1838 51.3559L58.2402 49.4317ZM52.7196 38.7576L48.9455 27.3187C48.8653 27.0758 48.6033 26.9437 48.3603 27.024L45.1241 28.0917L45.1083 28.1208L45.0812 28.1059L43.3737 28.6693L44.7798 32.9307L42.8539 33.5661L41.4479 29.3048L39.7399 29.8683L39.727 29.8964L39.6968 29.8825L36.4816 30.9434C36.2385 31.0236 36.1067 31.2856 36.1868 31.5285L39.9611 42.9675C40.0412 43.2105 40.3032 43.3425 40.5462 43.2623L52.4251 39.3428C52.6678 39.2626 52.7999 39.0006 52.7196 38.7576Z" fill="white"/>
</g>
<defs>
<clipPath id="clip0_2740_7">
<rect width="50" height="50" fill="white" transform="translate(20 27)"/>
</clipPath>
</defs>
</svg>
