<svg width="50" height="50" viewBox="0 0 50 50" fill="none" xmlns="http://www.w3.org/2000/svg">
<path d="M49.7104 24.2499L38.5995 14.1225C38.2908 13.8717 37.9533 13.8235 37.5868 13.9779C37.2206 14.1324 37.0367 14.4119 37.0367 14.8172V21.2987H0.925903C0.655713 21.2987 0.433764 21.3854 0.26036 21.559C0.0870568 21.7325 0 21.9544 0 22.2244V27.7798C0 28.0497 0.0866514 28.2717 0.260258 28.445C0.434068 28.6185 0.656017 28.7051 0.925802 28.7051H37.0369V35.1866C37.0369 35.5729 37.2211 35.8524 37.5871 36.0255C37.9539 36.1805 38.2914 36.1219 38.6001 35.8524L49.711 25.6086C49.9038 25.4158 50 25.1848 50 24.9145C50 24.6644 49.9032 24.4428 49.7104 24.2499Z" fill="#FCCA3A"/>
</svg>
