<svg width="100" height="100" viewBox="0 0 100 100" fill="none" xmlns="http://www.w3.org/2000/svg">
<path d="M35.0619 66.1955L27.9545 64.6365V63.184C30.4592 61.2451 32.0764 58.2119 32.0764 54.8066V47.8955C32.0764 42.0553 27.3248 37.3037 21.4846 37.3037C15.6443 37.3037 10.8928 42.0553 10.8928 47.8955V54.8066C10.8928 58.2346 12.5311 61.2857 15.0641 63.2229V64.6352L7.91406 66.1984C3.32813 67.201 0 71.3356 0 76.0295V98.0465C0 99.125 0.874609 99.9996 1.95312 99.9996H41.0156C42.0941 99.9996 42.9688 99.125 42.9688 98.0465V94.4332C42.9688 93.3547 42.0941 92.4801 41.0156 92.4801C39.9371 92.4801 39.0625 93.3547 39.0625 94.4332V96.0934H3.90625V76.0295C3.90625 73.1576 5.94258 70.6279 8.74805 70.0146L17.4342 68.1154C18.3311 67.9193 18.9701 67.1254 18.9701 66.2072V65.0943C19.7766 65.2914 20.6182 65.3984 21.4844 65.3984C22.3684 65.3984 23.2268 65.2879 24.0482 65.083V66.2074C24.0482 67.1248 24.6869 67.9188 25.5828 68.1152L34.2248 70.0109C37.0279 70.6258 39.0625 73.1553 39.0625 76.025V78.4502C39.0625 79.5287 39.9371 80.4033 41.0156 80.4033C42.0941 80.4033 42.9688 79.5287 42.9688 78.4502V76.025C42.9688 71.3346 39.6436 67.2006 35.0619 66.1955ZM14.7988 54.8066V47.8955C14.7988 44.209 17.7979 41.21 21.4844 41.21C25.1709 41.21 28.1699 44.209 28.1699 47.8955V54.8066C28.1699 58.4932 25.1709 61.4922 21.4844 61.4922C17.7979 61.4922 14.7988 58.4932 14.7988 54.8066Z" fill="#1168AC"/>
<path d="M89.1074 54.807V51.9531H94.1406C97.3715 51.9531 100 49.3246 100 46.0938V27.3438C100 24.1129 97.3715 21.4844 94.1406 21.4844H85.6863C84.6078 21.4844 83.7332 22.359 83.7332 23.4375C83.7332 24.516 84.6078 25.3906 85.6863 25.3906H94.1406C95.2176 25.3906 96.0938 26.2668 96.0938 27.3438V46.0938C96.0938 47.1707 95.2176 48.0469 94.1406 48.0469H89.1074V47.8961C89.1074 42.0559 84.3559 37.3043 78.5156 37.3043C72.6754 37.3043 67.9238 42.0559 67.9238 47.8961V48.0469H61.3281C60.2496 48.0469 59.375 48.9215 59.375 50V53.0971L54.8967 48.6187C54.5303 48.2527 54.0336 48.0469 53.5156 48.0469H50.3906C49.3137 48.0469 48.4375 47.1707 48.4375 46.0938V27.3438C48.4375 26.2668 49.3137 25.3906 50.3906 25.3906H69.877C70.9555 25.3906 71.8301 24.516 71.8301 23.4375C71.8301 22.359 70.9555 21.4844 69.877 21.4844H66.3412V5.85938C66.3412 2.62852 63.7127 0 60.4818 0H5.85938C2.62852 0 0 2.62852 0 5.85938V26.3672C0 29.598 2.62852 32.2266 5.85938 32.2266H31.2174V36.3932C31.2174 37.1832 31.6934 37.8953 32.423 38.1975C32.6646 38.2977 32.9184 38.3463 33.1701 38.3463C33.6783 38.3463 34.1779 38.1479 34.5516 37.7742L40.0994 32.2266H44.5312V46.0938C44.5312 49.3246 47.1598 51.9531 50.3906 51.9531H52.7064L59.9469 59.1936C60.3205 59.5672 60.8201 59.7656 61.3283 59.7656C61.5799 59.7656 61.8338 59.717 62.0754 59.617C62.8051 59.3147 63.2811 58.6025 63.2811 57.8125V51.9531H67.9236V54.807C67.9236 58.235 69.5619 61.2861 72.0949 63.2232V64.6355L64.9449 66.1988C60.3594 67.2014 57.0312 71.3359 57.0312 76.0299V98.0469C57.0312 99.1254 57.9059 100 58.9844 100H98.0469C99.1254 100 100 99.1254 100 98.0469V76.0254C100 71.335 96.6748 67.201 92.0932 66.1959L84.9857 64.6369V63.1844C87.4904 61.2453 89.1074 58.2123 89.1074 54.807ZM39.2904 28.3203C38.7725 28.3203 38.2758 28.5262 37.9094 28.8924L35.1236 31.6781V30.2734C35.1236 29.1949 34.249 28.3203 33.1705 28.3203H5.85938C4.78242 28.3203 3.90625 27.4441 3.90625 26.3672V5.85938C3.90625 4.78242 4.78242 3.90625 5.85938 3.90625H60.4818C61.5588 3.90625 62.435 4.78242 62.435 5.85938V21.4844H50.3906C47.1598 21.4844 44.5312 24.1129 44.5312 27.3438V28.3203H39.2904ZM76.0014 65.0949C76.8078 65.292 77.6494 65.399 78.5156 65.399C79.3996 65.399 80.258 65.2885 81.0795 65.0836V65.8611L78.5404 72.7807L76.0014 65.8611V65.0949ZM78.5156 41.2104C82.2021 41.2104 85.2012 44.2094 85.2012 47.8959V49.3779H82.3205C78.5693 49.3779 75.0316 47.9963 72.285 45.476C73.257 42.9826 75.6824 41.2104 78.5156 41.2104ZM71.8301 50.0842C74.9041 52.165 78.5262 53.2842 82.3207 53.2842H85.2014V54.807C85.2014 58.4936 82.2023 61.4926 78.5158 61.4926C74.8293 61.4926 71.8303 58.4936 71.8303 54.807V50.0842H71.8301ZM91.2561 70.0113C94.0592 70.6262 96.0938 73.1557 96.0938 76.0254V96.0938H60.9375V76.0299C60.9375 73.158 62.9738 70.6283 65.7793 70.015L72.8016 68.4797L76.707 79.1232C76.9891 79.8924 77.7213 80.4037 78.5406 80.4037C79.36 80.4037 80.092 79.8926 80.3742 79.1232L84.2793 68.4807L91.2561 70.0113Z" fill="#1168AC"/>
<path d="M77.874 25.3906C78.3877 25.3906 78.8897 25.1816 79.2529 24.8182C79.6182 24.4551 79.8254 23.9512 79.8254 23.4375C79.8254 22.9238 79.6182 22.4199 79.2529 22.0566C78.8898 21.6934 78.3877 21.4844 77.874 21.4844C77.3584 21.4844 76.8545 21.6932 76.4912 22.0566C76.1279 22.4201 75.9189 22.9238 75.9189 23.4375C75.9189 23.9512 76.1277 24.4551 76.4912 24.8182C76.8545 25.1816 77.3584 25.3906 77.874 25.3906Z" fill="#1168AC"/>
<path d="M41.0156 84.668C40.502 84.668 39.998 84.8768 39.6348 85.2402C39.2715 85.6037 39.0625 86.1074 39.0625 86.6211C39.0625 87.1348 39.2713 87.6387 39.6348 88.0018C39.998 88.365 40.502 88.5742 41.0156 88.5742C41.5293 88.5742 42.0332 88.3652 42.3963 88.0018C42.7596 87.6387 42.9688 87.1348 42.9688 86.6211C42.9688 86.1074 42.7598 85.6035 42.3963 85.2402C42.0332 84.8768 41.5293 84.668 41.0156 84.668Z" fill="#1168AC"/>
<path d="M40.1367 18.8799H10.8398C9.76133 18.8799 8.88672 19.7545 8.88672 20.833C8.88672 21.9115 9.76133 22.7861 10.8398 22.7861H40.1367C41.2152 22.7861 42.0898 21.9115 42.0898 20.833C42.0898 19.7545 41.2152 18.8799 40.1367 18.8799Z" fill="#1168AC"/>
<path d="M10.8398 13.3467H47.4121C48.4906 13.3467 49.3652 12.4721 49.3652 11.3936C49.3652 10.315 48.4906 9.44043 47.4121 9.44043H10.8398C9.76133 9.44043 8.88672 10.315 8.88672 11.3936C8.88672 12.4721 9.76133 13.3467 10.8398 13.3467Z" fill="#1168AC"/>
<path d="M55.2246 13.3457C55.7383 13.3457 56.2422 13.1385 56.6053 12.7732C56.9686 12.4102 57.1777 11.9062 57.1777 11.3926C57.1777 10.8789 56.9688 10.377 56.6053 10.0117C56.2422 9.64844 55.7383 9.43945 55.2246 9.43945C54.7109 9.43945 54.207 9.64824 53.8437 10.0117C53.4805 10.377 53.2715 10.8789 53.2715 11.3926C53.2715 11.9062 53.4803 12.4102 53.8437 12.7732C54.207 13.1387 54.7109 13.3457 55.2246 13.3457Z" fill="#1168AC"/>
</svg>
