<svg width="100" height="100" viewBox="0 0 100 100" fill="none" xmlns="http://www.w3.org/2000/svg">
<path d="M91.8706 59.917L70.658 38.7036C69.9964 38.0778 68.9621 38.0778 68.3013 38.7036L58.8726 48.1315C58.2223 48.7826 58.2223 49.8372 58.8726 50.4883L60.0509 51.6667L56.8673 54.8503L54.3145 55.3581L49.4447 50.4883C49.1322 50.1758 48.7082 50 48.2663 50H41.8861L38.8376 46.9531C39.4886 46.3029 39.4886 45.2474 38.8376 44.5964L29.4113 35.1668C29.098 34.8535 28.674 34.6777 28.2321 34.6777C27.7894 34.6777 27.3654 34.8535 27.0529 35.1668L8.19629 54.0234C7.54525 54.6745 7.54525 55.7292 8.19629 56.3802L17.6242 65.8081C18.2752 66.4591 19.3299 66.4591 19.981 65.8081L30.8029 76.63C30.0754 78.1323 30.1527 79.8991 31.0072 81.3322C31.8608 82.7653 33.3786 83.6735 35.0461 83.7484C35.1527 86.3086 37.2059 88.3577 39.7661 88.4603C39.8752 91.0132 41.9202 93.0575 44.4723 93.1665C44.5773 95.131 45.8265 96.8498 47.6624 97.557C49.4976 98.2633 51.5776 97.8263 52.9725 96.4396L54.7441 98.2113C56.1349 99.62 58.2272 100.072 60.0754 99.3628C61.9227 98.6532 63.1751 96.9173 63.2663 94.9398C65.8232 94.8348 67.8716 92.7856 67.9757 90.2287C70.5343 90.1204 72.5843 88.0713 72.6925 85.5135C74.6628 85.4191 76.3913 84.1707 77.1001 82.3307C77.8089 80.4899 77.3646 78.4049 75.9673 77.0133L74.2046 75.2498L78.9141 70.5298L80.0924 71.7098C80.7435 72.3608 81.7982 72.3608 82.4492 71.7098L91.8779 62.2819C92.5282 61.6309 92.5282 60.5762 91.8779 59.9251L91.8706 59.917ZM60.6409 66.3981C61.292 67.0492 61.292 68.1038 60.6409 68.7549C59.9826 69.3872 58.9425 69.3872 58.2842 68.7549L51.2131 61.6854C50.562 61.0343 49.5065 61.0343 48.8563 61.6854C46.9032 63.6393 43.7358 63.6393 41.7827 61.6854L39.4325 64.0413C40.0379 64.6354 40.7305 65.1335 41.4857 65.5184L32.9513 74.0584L27.0529 68.1665L41.8861 53.3333H47.5762L60.6409 66.3981ZM18.8075 62.273L11.7306 55.2018L28.2313 38.702L35.3024 45.7731L18.8075 62.273ZM36.4857 49.3099L38.8392 51.6667L24.6945 65.8081L22.3377 63.4513L36.4857 49.3099ZM49.4325 94.5671C48.9954 94.5687 48.5755 94.397 48.2663 94.0885C47.6258 93.4456 47.6177 92.408 48.2476 91.7554L48.2663 91.7367L51.6908 88.3114L52.9757 87.0296L50.623 84.6663L49.334 85.9554L45.8957 89.3799L45.881 89.3986C45.217 89.9902 44.2062 89.9569 43.5828 89.3221C42.9595 88.6882 42.944 87.6766 43.5479 87.0231L48.2663 82.3079L45.9095 79.952L41.196 84.6663C40.5449 85.3182 39.4894 85.3182 38.8384 84.6672C38.1873 84.0169 38.1865 82.9614 38.8376 82.3104L43.5527 77.5968L41.196 75.2401L36.4792 79.9536C35.8208 80.5835 34.7832 80.5835 34.124 79.9536C33.4738 79.3026 33.4738 78.2479 34.124 77.5968L45.2658 66.4502C46.9178 66.4746 48.5397 66.005 49.9224 65.1017L55.9323 71.1117C57.9115 73.0005 61.0251 73.0005 63.0042 71.1117C64.9565 69.1593 64.9565 65.9945 63.0042 64.0413L57.1546 58.1917L71.8478 72.8833L71.3473 73.383C69.8955 72.981 68.3395 73.2633 67.1213 74.1488C65.9022 75.035 65.1543 76.4282 65.0892 77.9329C62.5151 78.042 60.4595 80.1164 60.374 82.6921C57.8162 82.7555 55.7516 84.8014 55.6646 87.3584C54.1615 87.4227 52.7699 88.1681 51.8828 89.3831C50.9966 90.5981 50.7118 92.1509 51.1097 93.6019L50.6092 94.1016C50.2943 94.4067 49.8711 94.5744 49.4325 94.5671ZM59.4626 95.8618C58.8042 96.4925 57.765 96.4925 57.1058 95.8618L54.7474 93.5002C54.1647 92.8402 54.1956 91.8408 54.8174 91.2183C55.4399 90.5957 56.4393 90.564 57.0993 91.1466L59.4626 93.5002C59.7767 93.811 59.9525 94.235 59.9508 94.6769C59.9525 95.1213 59.7767 95.5477 59.4626 95.8618ZM64.1761 91.1466C63.5251 91.7977 62.4704 91.7977 61.8193 91.1466L59.4626 88.7899C59.1501 88.4774 58.9735 88.0534 58.9735 87.6107C58.9735 87.1688 59.1501 86.744 59.4626 86.4315C59.7734 86.1174 60.1974 85.9416 60.6393 85.9432C61.0812 85.9432 61.5052 86.119 61.8177 86.4315L64.1745 88.7882C64.4878 89.1007 64.6636 89.5247 64.6636 89.9674C64.6644 90.4093 64.4886 90.8341 64.1761 91.1466ZM68.888 86.4315C68.2288 87.0614 67.1912 87.0614 66.5329 86.4315L64.1761 84.0747C63.5446 83.4212 63.5535 82.3812 64.1964 81.7383C64.8394 81.0954 65.8786 81.0864 66.5329 81.7179L68.8896 84.0747C69.2021 84.3872 69.3779 84.8112 69.3779 85.2531C69.3796 85.6958 69.203 86.1206 68.888 86.4315ZM73.604 81.7179C73.2915 82.0313 72.8675 82.207 72.4248 82.207C71.9829 82.207 71.5589 82.0313 71.2456 81.7179L68.8896 79.362C68.237 78.7101 68.2362 77.6538 68.888 77.002C69.5391 76.3493 70.5954 76.3485 71.248 77.0003L73.5991 79.362C74.2502 80.0122 74.2502 81.0677 73.5991 81.7179H73.604ZM74.194 70.5216L60.0526 56.3802L62.4077 54.0234L76.5508 68.1665L74.194 70.5216ZM81.2659 68.1665L62.4077 49.3099L69.4797 42.238L88.3363 61.0954L81.2659 68.1665Z" fill="#1168AC"/>
<path d="M18.2669 94.9997V69.9997C18.2669 69.0792 17.5207 68.333 16.6003 68.333C15.6798 68.333 14.9336 69.0792 14.9336 69.9997V94.9997C14.9336 97.7609 17.1715 99.9997 19.9336 99.9997H39.9336C40.8541 99.9997 41.6003 99.2535 41.6003 98.333C41.6003 97.4125 40.8541 96.6663 39.9336 96.6663H19.9336C19.0132 96.6663 18.2669 95.9201 18.2669 94.9997Z" fill="#1168AC"/>
<path d="M81.5996 95C81.5996 95.9204 80.8533 96.6667 79.9329 96.6667H68.2663C67.3458 96.6667 66.5996 97.4129 66.5996 98.3333C66.5996 99.2538 67.3458 100 68.2663 100H79.9329C82.6942 100 84.9329 97.7612 84.9329 95V76.6667C84.9329 75.7462 84.1867 75 83.2663 75C82.3458 75 81.5996 75.7462 81.5996 76.6667V95Z" fill="#1168AC"/>
<path d="M18.2669 5C18.2669 4.07959 19.0132 3.33333 19.9336 3.33333H66.6003V15C66.6003 17.7612 68.8382 20 71.6003 20H81.6003V45C81.6003 45.9205 82.3465 46.6667 83.2669 46.6667C84.1874 46.6667 84.9336 45.9205 84.9336 45V18.383C84.9336 17.972 84.7814 17.5757 84.5063 17.2697L69.5063 0.553385C69.1906 0.201009 68.7397 0 68.2669 0H19.9336C17.1715 0 14.9336 2.23877 14.9336 5V38.3333C14.9336 39.2538 15.6798 40 16.6003 40C17.5207 40 18.2669 39.2538 18.2669 38.3333V5ZM69.9336 15V6.02539L79.4868 16.6667H71.6003C70.6798 16.6667 69.9336 15.9204 69.9336 15Z" fill="#1168AC"/>
<path d="M24.9336 11.6667C24.9336 10.7462 25.6798 10 26.6003 10C27.5207 10 28.2669 10.7462 28.2669 11.6667C28.2669 12.5871 27.5207 13.3333 26.6003 13.3333C25.6798 13.3333 24.9336 12.5871 24.9336 11.6667Z" fill="#1168AC"/>
<path d="M31.5996 11.6667C31.5996 10.7462 32.3458 10 33.2663 10H43.2663C44.1868 10 44.9329 10.7462 44.9329 11.6667C44.9329 12.5871 44.1868 13.3333 43.2663 13.3333H33.2663C32.3458 13.3333 31.5996 12.5871 31.5996 11.6667Z" fill="#1168AC"/>
<path d="M24.9336 18.3337C24.9336 17.4132 25.6798 16.667 26.6003 16.667H43.2669C44.1874 16.667 44.9336 17.4132 44.9336 18.3337C44.9336 19.2541 44.1874 20.0003 43.2669 20.0003H26.6003C25.6798 20.0003 24.9336 19.2541 24.9336 18.3337Z" fill="#1168AC"/>
<path d="M24.9336 28.3337C24.9336 27.4132 25.6798 26.667 26.6003 26.667H29.9336C30.8541 26.667 31.6003 27.4132 31.6003 28.3337C31.6003 29.2541 30.8541 30.0003 29.9336 30.0003H26.6003C25.6798 30.0003 24.9336 29.2541 24.9336 28.3337Z" fill="#1168AC"/>
<path d="M34.9336 28.3337C34.9336 27.4132 35.6798 26.667 36.6003 26.667H73.2669C74.1874 26.667 74.9336 27.4132 74.9336 28.3337C74.9336 29.2541 74.1874 30.0003 73.2669 30.0003H36.6003C35.6798 30.0003 34.9336 29.2541 34.9336 28.3337Z" fill="#1168AC"/>
<path d="M38.2666 38.3337C38.2666 37.4132 39.0128 36.667 39.9333 36.667H61.5999C62.5204 36.667 63.2666 37.4132 63.2666 38.3337C63.2666 39.2541 62.5204 40.0003 61.5999 40.0003H39.9333C39.0128 40.0003 38.2666 39.2541 38.2666 38.3337Z" fill="#1168AC"/>
</svg>
