<svg width="100" height="100" viewBox="0 0 100 100" fill="none" xmlns="http://www.w3.org/2000/svg">
<path d="M92.4997 73.3333H82.4997V61.6667C82.4897 53.3867 75.7797 46.6767 67.4997 46.6667H54.1663V44.0883C58.3209 41.3185 60.8211 36.6598 60.833 31.6667V26.6667H62.4997C65.2536 26.6735 67.492 24.4467 67.4988 21.6925C67.5043 19.5444 66.1332 17.6342 64.0963 16.9517C63.3686 7.39917 55.4132 0.015 45.833 0H42.4997C32.9195 0.015 24.964 7.39917 24.2363 16.9517C21.6249 17.8267 20.2172 20.6527 21.0922 23.2642C21.7747 25.301 23.6849 26.6721 25.833 26.6667H27.4997V31.6667C27.5109 36.66 30.0113 41.319 34.1663 44.0883V46.6667H20.833C12.553 46.6767 5.84301 53.3867 5.83301 61.6667V86.6667C5.83301 87.5871 6.57926 88.3333 7.49967 88.3333H19.1663V98.3333C19.1663 99.2537 19.9126 100 20.833 100H80.833C81.7534 100 82.4997 99.2537 82.4997 98.3333V88.555L83.698 89.5933C84.3243 90.1354 85.2534 90.1354 85.8797 89.5933L88.6447 87.2033L91.4097 89.5933C91.4922 89.6535 91.5803 89.7054 91.673 89.7483C91.7418 89.7969 91.814 89.8398 91.8897 89.8767C92.0834 89.9562 92.2903 89.9981 92.4997 90C92.7293 89.9992 92.9563 89.951 93.1663 89.8583C93.2095 89.8321 93.2511 89.8037 93.2913 89.7733C93.4499 89.6919 93.594 89.5848 93.718 89.4567C93.7297 89.4417 93.7497 89.4383 93.7613 89.4233C93.8051 89.3587 93.8436 89.2908 93.8763 89.22C93.9436 89.1233 93.9995 89.0194 94.043 88.91C94.0809 88.7988 94.1068 88.6835 94.1197 88.5667C94.1409 88.4902 94.1565 88.4121 94.1663 88.3333V75C94.1663 74.0796 93.4201 73.3333 92.4997 73.3333ZM69.1663 50.1183C74.9028 50.9544 79.159 55.8696 79.1663 61.6667V66.6667H69.1663V50.1183ZM69.1663 70H79.1663V73.3333H69.1663V70ZM57.4997 50H65.833V73.3333H57.4997V50ZM37.4997 4.205V10C37.4997 10.9204 38.2459 11.6667 39.1663 11.6667C40.0868 11.6667 40.833 10.9204 40.833 10V3.435C41.3861 3.37 41.9426 3.33604 42.4997 3.33333V11.6667C42.4997 12.5871 43.2459 13.3333 44.1663 13.3333C45.0868 13.3333 45.833 12.5871 45.833 11.6667V3.33333C46.3901 3.33604 46.9465 3.37 47.4997 3.435V10C47.4997 10.9204 48.2459 11.6667 49.1663 11.6667C50.0868 11.6667 50.833 10.9204 50.833 10V4.205C56.2445 6.12583 60.0893 10.9615 60.7413 16.6667H27.5913C28.2434 10.9615 32.0882 6.12583 37.4997 4.205ZM25.833 23.3333C24.9126 23.3333 24.1663 22.5871 24.1663 21.6667C24.1663 20.7463 24.9126 20 25.833 20H62.4997C63.4201 20 64.1663 20.7463 64.1663 21.6667C64.1663 22.5871 63.4201 23.3333 62.4997 23.3333H25.833ZM30.833 31.6667V26.6667H57.4997V31.6667C57.4974 35.8363 55.268 39.6871 51.653 41.765C49.8876 42.7973 47.8782 43.3387 45.833 43.3333H42.4997C40.4488 43.3377 38.4347 42.7921 36.6663 41.7533C33.0582 39.676 30.8338 35.83 30.833 31.6667ZM50.833 45.8117V50C50.833 53.6819 47.8482 56.6667 44.1663 56.6667C40.4845 56.6667 37.4997 53.6819 37.4997 50V45.8083C37.8097 45.92 38.128 46.01 38.4463 46.1C38.5113 46.1183 38.573 46.1417 38.6363 46.1667C39.1938 46.3104 39.7593 46.4217 40.3297 46.5C40.4663 46.52 40.6013 46.5367 40.738 46.5517C41.3224 46.6252 41.9107 46.6635 42.4997 46.6667H45.833C46.4213 46.6627 47.009 46.6242 47.593 46.5517C47.7313 46.535 47.868 46.5183 48.0047 46.4983C48.5718 46.4194 49.1336 46.3081 49.688 46.165C49.7613 46.145 49.833 46.1183 49.9063 46.0967C50.218 46.01 50.5297 45.92 50.833 45.8117ZM34.1663 50C34.1663 55.5229 38.6434 60 44.1663 60C49.6893 60 54.1663 55.5229 54.1663 50V73.3333H44.1663V71.6667C44.1663 70.7462 43.4201 70 42.4997 70H34.1663V50ZM32.4997 73.3333H40.833V90H32.4997C31.5793 90 30.833 89.2537 30.833 88.3333V88.1233C31.0593 88.0565 31.282 87.9775 31.4997 87.8867C31.5997 87.85 31.7047 87.8233 31.803 87.7817C32.1697 87.6233 32.5211 87.4321 32.853 87.21C32.9247 87.1617 32.9863 87.1017 33.0563 87.0517C33.3093 86.87 33.5497 86.6719 33.7763 86.4583C33.8763 86.36 33.9647 86.2533 34.0597 86.15C34.238 85.9606 34.4049 85.7608 34.5597 85.5517C34.648 85.4283 34.7263 85.3017 34.8097 85.1733C34.944 84.9585 35.0653 84.736 35.173 84.5067C35.238 84.37 35.303 84.235 35.3597 84.0933C35.4576 83.8358 35.5395 83.5725 35.6047 83.305C35.638 83.175 35.6797 83.0517 35.7047 82.92C35.8736 82.0952 35.8736 81.2448 35.7047 80.42C35.6797 80.2883 35.638 80.165 35.6047 80.035C35.5395 79.7675 35.4576 79.5042 35.3597 79.2467C35.303 79.105 35.238 78.97 35.173 78.8333C35.0653 78.604 34.944 78.3815 34.8097 78.1667C34.7297 78.0383 34.643 77.9117 34.5597 77.7883C34.4049 77.5792 34.238 77.3794 34.0597 77.19C33.9647 77.0867 33.8763 76.98 33.7763 76.8817C33.5497 76.6681 33.3093 76.47 33.0563 76.2883C32.9863 76.2383 32.9247 76.1783 32.853 76.13C32.5211 75.9079 32.1697 75.7167 31.803 75.5583C31.7047 75.5167 31.5997 75.49 31.4997 75.4533C31.282 75.3625 31.0593 75.2835 30.833 75.2167V75C30.833 74.0796 31.5793 73.3333 32.4997 73.3333ZM22.4997 50H30.833V70.3067C28.8424 71.0104 27.5084 72.8887 27.4997 75H22.4997V50ZM9.16634 61.6667C9.17363 55.8696 13.4299 50.9544 19.1663 50.1183V66.6667H9.16634V61.6667ZM9.16634 85V70H19.1663V76.6667C19.1663 77.5871 19.9126 78.3333 20.833 78.3333H29.1663C31.0074 78.3333 32.4997 79.8256 32.4997 81.6667C32.4997 83.5077 31.0074 85 29.1663 85H9.16634ZM65.833 88.3333V96.6667H22.4997V88.3333H27.4997C27.4997 91.0948 29.7382 93.3333 32.4997 93.3333H42.4997C43.4201 93.3333 44.1663 92.5871 44.1663 91.6667V88.6517L45.2513 89.5917C45.8778 90.1348 46.8082 90.1348 47.4347 89.5917L50.1847 87.2067L52.938 89.5917C53.5645 90.1348 54.4949 90.1348 55.1213 89.5917L57.873 87.2067L60.6247 89.5917C61.2511 90.1348 62.1815 90.1348 62.808 89.5917L65.5613 87.2067L66.018 87.6033C65.9005 87.829 65.8372 88.079 65.833 88.3333ZM79.1663 96.6667H69.1663V89.9583C69.6432 90.0385 70.1309 89.9044 70.4997 89.5917L73.253 87.205L75.9997 89.5933C76.6261 90.1365 77.5565 90.1365 78.183 89.5933L79.1663 88.74V96.6667ZM90.833 84.69L89.733 83.74C89.1072 83.199 88.1788 83.199 87.553 83.74L84.7897 86.13L82.0313 83.74C81.4049 83.1969 80.4745 83.1969 79.848 83.74L77.0913 86.1283L74.333 83.74C73.7065 83.1969 72.7761 83.1969 72.1497 83.74L69.3997 86.125L66.653 83.74C66.0266 83.1969 65.0961 83.1969 64.4697 83.74L61.7163 86.1267L58.9647 83.7417C58.338 83.1977 57.4063 83.1977 56.7797 83.7417L54.0297 86.1267L51.2763 83.7417C50.6499 83.1985 49.7195 83.1985 49.093 83.7417L46.343 86.1267L44.1663 84.24V76.6667H90.833V84.69Z" fill="#1168AC"/>
</svg>
