<svg width="92" height="100" viewBox="0 0 92 100" fill="none" xmlns="http://www.w3.org/2000/svg">
<path d="M83.333 68.3337V70.0003H78.333C77.891 70.0003 77.467 70.1759 77.1545 70.4885C76.8419 70.801 76.6663 71.225 76.6663 71.667V73.2365C73.6353 71.3607 70.06 70.5626 66.519 70.9713C62.9781 71.38 59.6786 72.9715 57.1545 75.4884L55.9759 76.667H46.6663C45.496 76.6666 44.3462 76.9745 43.3325 77.5596C42.3189 78.1446 41.4772 78.9863 40.8922 79.9999C40.3071 81.0136 39.9993 82.1634 39.9997 83.3338C40 84.5041 40.3086 85.6537 40.8943 86.667H19.9997C18.2316 86.667 16.5359 87.3694 15.2856 88.6196C14.0354 89.8699 13.333 91.5655 13.333 93.3337C13.333 95.1018 14.0354 96.7975 15.2856 98.0477C16.5359 99.2979 18.2316 100 19.9997 100H56.3145C63.4473 100.007 70.4599 98.1631 76.6663 94.6478V95.0003C76.6663 95.4423 76.8419 95.8663 77.1545 96.1788C77.467 96.4914 77.891 96.667 78.333 96.667H83.333V98.3337C83.333 98.7757 83.5086 99.1996 83.8212 99.5122C84.1337 99.8247 84.5576 100 84.9997 100H89.9997C90.9201 100 91.6663 99.2541 91.6663 98.3337C91.6663 97.4132 90.9201 96.667 89.9997 96.667H86.6663V70.0003H89.9997C90.9201 70.0003 91.6663 69.2541 91.6663 68.3337C91.6663 67.4132 90.9201 66.667 89.9997 66.667H84.9997C84.5576 66.667 84.1337 66.8426 83.8212 67.1552C83.5086 67.4677 83.333 67.8916 83.333 68.3337ZM56.3145 96.667H19.9997C19.1156 96.667 18.2678 96.3158 17.6427 95.6907C17.0175 95.0656 16.6663 94.2177 16.6663 93.3337C16.6663 92.4496 17.0175 91.6017 17.6427 90.9766C18.2678 90.3515 19.1156 90.0003 19.9997 90.0003H59.9997C60.4417 90.0003 60.8656 89.8247 61.1782 89.5122C61.4907 89.1996 61.6663 88.7757 61.6663 88.3337C61.6663 87.8916 61.4907 87.4677 61.1782 87.1551C60.8656 86.8426 60.4417 86.667 59.9997 86.667H46.6663C45.7823 86.667 44.9344 86.3158 44.3093 85.6907C43.6842 85.0656 43.333 84.2177 43.333 83.3337C43.333 82.4496 43.6842 81.6018 44.3093 80.9766C44.9344 80.3515 45.7823 80.0003 46.6663 80.0003H56.6663C57.1083 80.0003 57.5322 79.8248 57.8448 79.5122L59.5115 77.8456C61.7687 75.588 64.8056 74.2818 67.9969 74.1959C71.1882 74.11 74.291 75.251 76.6663 77.3839V90.7614C70.5819 94.6251 63.522 96.6737 56.3145 96.667ZM79.9997 93.3337V73.3337H83.333V93.3337H79.9997Z" fill="#FCBB00"/>
<path d="M26.6667 43.333H35C35.442 43.333 35.8659 43.1574 36.1785 42.8448C36.4911 42.5323 36.6667 42.1084 36.6667 41.6663V34.9997C36.6667 34.5576 36.4911 34.1337 36.1785 33.8212C35.8659 33.5086 35.442 33.333 35 33.333H26.6667C26.2246 33.333 25.8007 33.5086 25.4882 33.8212C25.1756 34.1337 25 34.5576 25 34.9997V41.6663C25 42.1084 25.1756 42.5323 25.4882 42.8448C25.8007 43.1574 26.2246 43.333 26.6667 43.333ZM28.3333 36.6663H33.3333V39.9997H28.3333V36.6663Z" fill="#FCBB00"/>
<path d="M51.6667 34.9997C51.6667 34.5576 51.4911 34.1337 51.1785 33.8212C50.8659 33.5086 50.442 33.333 50 33.333H41.6667C41.2246 33.333 40.8007 33.5086 40.4882 33.8212C40.1756 34.1337 40 34.5576 40 34.9997V41.6663C40 42.1084 40.1756 42.5323 40.4882 42.8448C40.8007 43.1574 41.2246 43.333 41.6667 43.333H50C50.442 43.333 50.8659 43.1574 51.1785 42.8448C51.4911 42.5323 51.6667 42.1084 51.6667 41.6663V34.9997ZM48.3333 39.9997H43.3333V36.6663H48.3333V39.9997Z" fill="#FCBB00"/>
<path d="M25 55.0003C25 55.4424 25.1756 55.8663 25.4882 56.1788C25.8007 56.4914 26.2246 56.667 26.6667 56.667H35C35.442 56.667 35.8659 56.4914 36.1785 56.1788C36.4911 55.8663 36.6667 55.4424 36.6667 55.0003V48.3337C36.6667 47.8916 36.4911 47.4677 36.1785 47.1552C35.8659 46.8426 35.442 46.667 35 46.667H26.6667C26.2246 46.667 25.8007 46.8426 25.4882 47.1552C25.1756 47.4677 25 47.8916 25 48.3337V55.0003ZM28.3333 50.0003H33.3333V53.3337H28.3333V50.0003Z" fill="#FCBB00"/>
<path d="M51.6667 48.3337C51.6667 47.8916 51.4911 47.4677 51.1785 47.1552C50.8659 46.8426 50.442 46.667 50 46.667H41.6667C41.2246 46.667 40.8007 46.8426 40.4882 47.1552C40.1756 47.4677 40 47.8916 40 48.3337V55.0003C40 55.4424 40.1756 55.8663 40.4882 56.1788C40.8007 56.4914 41.2246 56.667 41.6667 56.667H50C50.442 56.667 50.8659 56.4914 51.1785 56.1788C51.4911 55.8663 51.6667 55.4424 51.6667 55.0003V48.3337ZM48.3333 53.3337H43.3333V50.0003H48.3333V53.3337Z" fill="#FCBB00"/>
<path d="M25 68.3333C25 68.7754 25.1756 69.1993 25.4882 69.5118C25.8007 69.8244 26.2246 70 26.6667 70H35C35.442 70 35.8659 69.8244 36.1785 69.5118C36.4911 69.1993 36.6667 68.7754 36.6667 68.3333V61.6667C36.6667 61.2246 36.4911 60.8007 36.1785 60.4882C35.8659 60.1756 35.442 60 35 60H26.6667C26.2246 60 25.8007 60.1756 25.4882 60.4882C25.1756 60.8007 25 61.2246 25 61.6667V68.3333ZM28.3333 63.3333H33.3333V66.6667H28.3333V63.3333Z" fill="#FCBB00"/>
<path d="M50 60H41.6667C41.2246 60 40.8007 60.1756 40.4882 60.4882C40.1756 60.8007 40 61.2246 40 61.6667V68.3333C40 68.7754 40.1756 69.1993 40.4882 69.5118C40.8007 69.8244 41.2246 70 41.6667 70H50C50.442 70 50.8659 69.8244 51.1785 69.5118C51.4911 69.1993 51.6667 68.7754 51.6667 68.3333V61.6667C51.6667 61.2246 51.4911 60.8007 51.1785 60.4882C50.8659 60.1756 50.442 60 50 60ZM48.3333 66.6667H43.3333V63.3333H48.3333V66.6667Z" fill="#FCBB00"/>
<path d="M33.3333 76.6663H38.3333C39.2538 76.6663 40 75.9201 40 74.9997C40 74.0792 39.2538 73.333 38.3333 73.333H31.6667C31.2246 73.333 30.8007 73.5086 30.4882 73.8212C30.1756 74.1337 30 74.5576 30 74.9997V81.6663C30 82.5868 30.7462 83.333 31.6667 83.333C32.5871 83.333 33.3333 82.5868 33.3333 81.6663V76.6663Z" fill="#FCBB00"/>
<path d="M45 0H1.66667C1.22464 4.42019e-06 0.80072 0.1756 0.48816 0.48816C0.175601 0.80072 4.42019e-06 1.22464 0 1.66667V88.3333C4.42019e-06 88.7753 0.175601 89.1993 0.48816 89.5118C0.80072 89.8244 1.22464 90 1.66667 90H8.33333C9.25381 90 10 89.2538 10 88.3333C10 87.4128 9.25381 86.6666 8.33333 86.6666H3.33333V3.33333H43.3333V26.6667H40V21.6667C40 21.2246 39.8244 20.8007 39.5118 20.4882C39.1993 20.1756 38.7754 20 38.3333 20H26.6667C26.2246 20 25.8007 20.1756 25.4882 20.4882C25.1756 20.8007 25 21.2246 25 21.6667V26.6667H21.6667V21.6667C21.6667 21.2246 21.4911 20.8007 21.1785 20.4882C20.8659 20.1756 20.442 20 20 20H8.33333C7.89131 20 7.46739 20.1756 7.15483 20.4882C6.84227 20.8007 6.66667 21.2246 6.66667 21.6667V28.3333C6.66667 28.7754 6.84227 29.1993 7.15483 29.5118C7.46739 29.8244 7.89131 30 8.33333 30H18.3333V33.3333H8.33333C7.89131 33.3333 7.46739 33.5089 7.15483 33.8215C6.84227 34.134 6.66667 34.558 6.66667 35V41.6667C6.66667 42.1087 6.84227 42.5326 7.15483 42.8452C7.46739 43.1577 7.89131 43.3333 8.33333 43.3333H18.3333V46.6667H8.33333C7.89131 46.6667 7.46739 46.8423 7.15483 47.1548C6.84227 47.4674 6.66667 47.8913 6.66667 48.3333V55C6.66667 55.442 6.84227 55.8659 7.15483 56.1785C7.46739 56.4911 7.89131 56.6667 8.33333 56.6667H18.3333V65H13.3333C12.8913 65 12.4674 65.1756 12.1548 65.4882C11.8423 65.8007 11.6667 66.2246 11.6667 66.6667V83.3333C11.6667 84.2538 12.4129 85 13.3333 85C14.2538 85 15 84.2538 15 83.3333V68.3333H18.3333V81.6667C18.3333 82.5871 19.0795 83.3333 20 83.3333C20.9205 83.3333 21.6667 82.5871 21.6667 81.6667V30H55V68.3333C55 69.2538 55.7462 70 56.6667 70C57.5871 70 58.3333 69.2538 58.3333 68.3333V28.3333C58.3333 27.8913 58.1577 27.4674 57.8452 27.1548C57.5326 26.8423 57.1087 26.6667 56.6667 26.6667H46.6667V1.66667C46.6667 1.22464 46.4911 0.80072 46.1785 0.48816C45.8659 0.1756 45.442 4.42019e-06 45 0ZM28.3333 23.3333H36.6667V26.6667H28.3333V23.3333ZM10 23.3333H18.3333V26.6667H10V23.3333ZM10 40V36.6667H18.3333V40H10ZM10 53.3333V50H18.3333V53.3333H10Z" fill="#FCBB00"/>
<path d="M8.33366 16.667H20.0003C20.4423 16.667 20.8663 16.4914 21.1788 16.1788C21.4914 15.8663 21.667 15.4424 21.667 15.0003V8.33366C21.667 7.89163 21.4914 7.46771 21.1788 7.15515C20.8663 6.84259 20.4423 6.667 20.0003 6.66699H8.33366C7.89163 6.667 7.46771 6.84259 7.15515 7.15515C6.84259 7.46771 6.667 7.89163 6.66699 8.33366V15.0003C6.667 15.4424 6.84259 15.8663 7.15515 16.1788C7.46771 16.4914 7.89163 16.667 8.33366 16.667ZM10.0003 10.0003H18.3337V13.3337H10.0003V10.0003Z" fill="#FCBB00"/>
<path d="M26.6667 16.667H38.3333C38.7754 16.667 39.1993 16.4914 39.5118 16.1788C39.8244 15.8663 40 15.4424 40 15.0003V8.33366C40 7.89163 39.8244 7.46771 39.5118 7.15515C39.1993 6.84259 38.7754 6.667 38.3333 6.66699H26.6667C26.2246 6.667 25.8007 6.84259 25.4882 7.15515C25.1756 7.46771 25 7.89163 25 8.33366V15.0003C25 15.4424 25.1756 15.8663 25.4882 16.1788C25.8007 16.4914 26.2246 16.667 26.6667 16.667ZM28.3333 10.0003H36.6667V13.3337H28.3333V10.0003Z" fill="#FCBB00"/>
</svg>
