<svg width="81" height="81" viewBox="0 0 81 81" fill="none" xmlns="http://www.w3.org/2000/svg">
<g clip-path="url(#clip0_433_156)">
<ellipse cx="41.2937" cy="41.7241" rx="23.6052" ry="25.0806" fill="#E53935"/>
<path d="M78.6631 45.1599L77.4501 43.5043C76.1387 41.7011 76.1059 39.2586 77.4009 37.4227L78.5812 35.7506C80.3843 33.1934 79.5483 29.6362 76.778 28.1445L74.9748 27.1773C73.0077 26.1282 71.9258 23.9316 72.3028 21.7186L72.6471 19.7023C73.1716 16.6205 70.8603 13.7682 67.7293 13.6371L65.6802 13.5551C63.4508 13.4568 61.5165 11.9487 60.8936 9.80125L60.3199 7.83414C59.4511 4.81792 56.1398 3.26062 53.2547 4.50646L51.3695 5.30969C49.3205 6.19489 46.9272 5.67033 45.4354 3.99829L44.0749 2.47378C41.993 0.146043 38.3375 0.162435 36.272 2.53935L34.9278 4.08025C33.4525 5.76868 31.0756 6.32603 29.0101 5.47362L27.1086 4.68677C24.2071 3.49012 20.9286 5.11298 20.0926 8.12921L19.5516 10.1127C18.9615 12.2765 17.06 13.8174 14.8306 13.9322L12.7815 14.0469C9.65054 14.2272 7.38837 17.1123 7.9621 20.1941L8.33913 22.2104C8.74895 24.407 7.69982 26.62 5.74911 27.7019L3.96233 28.7018C1.22477 30.2263 0.43793 33.7999 2.29029 36.3244L3.50333 37.98C4.81474 39.7832 4.84752 42.2257 3.55251 44.0616L2.37225 45.7337C0.569071 48.2909 1.40509 51.8481 4.17543 53.3398L5.97861 54.307C7.94571 55.3561 9.02762 57.5527 8.65059 59.7657L8.30635 61.782C7.78179 64.8638 10.0931 67.7161 13.2241 67.8472L15.2732 67.9292C17.5026 68.0275 19.4369 69.5356 20.0598 71.6831L20.6335 73.6502C21.5023 76.6664 24.8136 78.2237 27.6987 76.9779L29.5839 76.1746C31.6329 75.2894 34.0262 75.814 35.518 77.486L36.8785 79.0105C38.9768 81.3383 42.6323 81.3219 44.6814 78.945L46.0256 77.4041C47.5009 75.7156 49.8778 75.1583 51.9433 76.0107L53.8448 76.7975C56.7463 77.9942 60.0248 76.3713 60.8608 73.3551L61.4018 71.3716C61.9919 69.2078 63.8934 67.6669 66.1228 67.5521L68.1719 67.4374C71.3029 67.2571 73.565 64.372 72.9913 61.2902L72.6143 59.2739C72.2045 57.0773 73.2536 54.8643 75.2043 53.7824L76.9911 52.7825C79.7286 51.2744 80.5155 47.7008 78.6631 45.1599ZM21.7646 33.9475C21.7646 29.4887 25.371 25.8823 29.8297 25.8823C34.2885 25.8823 37.8949 29.4887 37.8949 33.9475C37.8949 38.4062 34.2885 42.0126 29.8297 42.0126C25.371 42.0126 21.7646 38.3898 21.7646 33.9475ZM31.387 54.7496C30.6986 55.5856 29.4527 55.7003 28.6167 55.0119C27.7807 54.3234 27.6659 53.0775 28.3544 52.2415L49.5172 26.7511C50.2057 25.9151 51.4515 25.8004 52.2875 26.4888C53.1235 27.1773 53.2383 28.4232 52.5498 29.2592L31.387 54.7496ZM51.0909 55.5856C46.6321 55.5856 43.0257 51.9792 43.0257 47.5205C43.0257 43.0617 46.6321 39.4553 51.0909 39.4553C55.5496 39.4553 59.156 43.0617 59.156 47.5205C59.156 51.9792 55.5496 55.5856 51.0909 55.5856Z" fill="#E53935"/>
</g>
<path d="M34.2854 39.8744C35.4034 39.2504 36.3914 38.0284 36.3914 36.1824C36.3914 34.7784 35.8194 33.6084 34.6494 32.6984C33.4794 31.7624 31.9194 31.2944 29.9694 31.2944C28.0194 31.2944 26.4594 31.7624 25.2894 32.6984C24.1194 33.6084 23.5474 34.7784 23.5474 36.1824C23.5474 37.8724 24.2494 39.1204 25.6534 39.8744V40.5504C24.2234 41.0964 22.9494 42.5784 22.9494 44.7364C22.9494 46.2704 23.5734 47.5704 24.7954 48.6364C26.0434 49.6764 27.7594 50.1964 29.9694 50.1964C32.1794 50.1964 33.8954 49.6764 35.1174 48.6364C36.3654 47.5704 36.9894 46.2704 36.9894 44.7364C36.9894 42.5784 35.7154 41.0964 34.2854 40.5504V39.8744ZM29.9694 34.1804C31.6594 34.1804 32.7774 35.1944 32.7774 36.5724C32.7774 38.0024 31.6594 38.9904 29.9694 38.9904C28.3054 38.9904 27.1614 38.0024 27.1614 36.5724C27.1614 35.1944 28.3054 34.1804 29.9694 34.1804ZM33.2714 44.3724C33.2714 45.9324 32.0754 47.0764 29.9694 47.0764C28.9034 47.0764 28.0974 46.8164 27.5254 46.3224C26.9534 45.8024 26.6674 45.1524 26.6674 44.3724C26.6674 43.5924 26.9534 42.9424 27.5254 42.4484C28.0974 41.9284 28.9034 41.6684 29.9694 41.6684C32.0494 41.6684 33.2714 42.8384 33.2714 44.3724ZM43.4591 31.2944C40.6771 31.2944 39.1691 33.3224 39.1691 36.2084C39.1691 39.1204 40.6771 41.1224 43.4591 41.1224C46.2671 41.1224 47.8011 39.1204 47.8011 36.2084C47.8011 33.3224 46.2671 31.2944 43.4591 31.2944ZM45.3831 36.2084C45.3831 37.8984 44.7331 38.9904 43.4591 38.9904C42.1851 38.9904 41.5611 37.8984 41.5611 36.2084C41.5611 34.5444 42.1851 33.4264 43.4591 33.4264C44.7331 33.4264 45.3831 34.5444 45.3831 36.2084ZM55.7571 40.3684C52.9491 40.3684 51.4151 42.3964 51.4151 45.2824C51.4151 48.1944 52.9491 50.1964 55.7571 50.1964C58.5391 50.1964 60.0731 48.1944 60.0731 45.2824C60.0731 42.3964 58.5391 40.3684 55.7571 40.3684ZM57.6811 45.2824C57.6811 46.9724 57.0311 48.0644 55.7571 48.0644C54.4831 48.0644 53.8331 46.9724 53.8331 45.2824C53.8331 43.6184 54.4831 42.5004 55.7571 42.5004C57.0311 42.5004 57.6811 43.6184 57.6811 45.2824ZM56.4591 31.6584H53.8331L42.8091 49.8584H45.4611L56.4591 31.6584Z" fill="white"/>
<defs>
<clipPath id="clip0_433_156">
<rect width="80" height="80" fill="white" transform="translate(0.476562 0.742188)"/>
</clipPath>
</defs>
</svg>
