<svg width="81" height="81" viewBox="0 0 81 81" fill="none" xmlns="http://www.w3.org/2000/svg">
<g clip-path="url(#clip0_433_200)">
<ellipse cx="41.6922" cy="41.7241" rx="23.6052" ry="25.0806" fill="#E53935"/>
<path d="M79.0616 45.1599L77.8485 43.5043C76.5371 41.7011 76.5043 39.2586 77.7993 37.4227L78.9796 35.7506C80.7828 33.1934 79.9468 29.6362 77.1764 28.1445L75.3732 27.1773C73.4061 26.1282 72.3242 23.9316 72.7012 21.7186L73.0455 19.7023C73.5701 16.6205 71.2587 13.7682 68.1277 13.6371L66.0787 13.5551C63.8493 13.4568 61.915 11.9487 61.292 9.80125L60.7183 7.83414C59.8495 4.81792 56.5382 3.26062 53.6531 4.50646L51.768 5.30969C49.7189 6.19489 47.3256 5.67033 45.8339 3.99829L44.4733 2.47378C42.3915 0.146043 38.7359 0.162435 36.6705 2.53935L35.3263 4.08025C33.8509 5.76868 31.474 6.32603 29.4086 5.47362L27.507 4.68677C24.6055 3.49012 21.327 5.11298 20.491 8.12921L19.9501 10.1127C19.3599 12.2765 17.4584 13.8174 15.229 13.9322L13.1799 14.0469C10.049 14.2272 7.7868 17.1123 8.36054 20.1941L8.73757 22.2104C9.14738 24.407 8.09826 26.62 6.14755 27.7019L4.36076 28.7018C1.62321 30.2263 0.836368 33.7999 2.68872 36.3244L3.90177 37.98C5.21318 39.7832 5.24596 42.2257 3.95095 44.0616L2.77069 45.7337C0.967508 48.2909 1.80353 51.8481 4.57387 53.3398L6.37705 54.307C8.34415 55.3561 9.42606 57.5527 9.04903 59.7657L8.70479 61.782C8.18022 64.8638 10.4916 67.7161 13.6225 67.8472L15.6716 67.9292C17.901 68.0275 19.8353 69.5356 20.4582 71.6831L21.032 73.6502C21.9008 76.6664 25.2121 78.2237 28.0972 76.9779L29.9823 76.1746C32.0314 75.2894 34.4247 75.814 35.9164 77.486L37.277 79.0105C39.3752 81.3383 43.0308 81.3219 45.0798 78.945L46.424 77.4041C47.8993 75.7156 50.2763 75.1583 52.3417 76.0107L54.2433 76.7975C57.1447 77.9942 60.4232 76.3713 61.2593 73.3551L61.8002 71.3716C62.3903 69.2078 64.2919 67.6669 66.5213 67.5521L68.5703 67.4374C71.7013 67.2571 73.9635 64.372 73.3897 61.2902L73.0127 59.2739C72.6029 57.0773 73.652 54.8643 75.6027 53.7824L77.3895 52.7825C80.1271 51.2744 80.9139 47.7008 79.0616 45.1599ZM22.1631 33.9475C22.1631 29.4887 25.7694 25.8823 30.2282 25.8823C34.687 25.8823 38.2933 29.4887 38.2933 33.9475C38.2933 38.4062 34.687 42.0126 30.2282 42.0126C25.7694 42.0126 22.1631 38.3898 22.1631 33.9475ZM31.7855 54.7496C31.097 55.5856 29.8512 55.7003 29.0151 55.0119C28.1791 54.3234 28.0644 53.0775 28.7529 52.2415L49.9156 26.7511C50.6041 25.9151 51.8499 25.8004 52.686 26.4888C53.522 27.1773 53.6367 28.4232 52.9482 29.2592L31.7855 54.7496ZM51.4893 55.5856C47.0305 55.5856 43.4242 51.9792 43.4242 47.5205C43.4242 43.0617 47.0305 39.4553 51.4893 39.4553C55.9481 39.4553 59.5544 43.0617 59.5544 47.5205C59.5544 51.9792 55.9481 55.5856 51.4893 55.5856Z" fill="#E53935"/>
</g>
<path d="M31.4314 37.4564C30.1574 37.4564 29.0654 37.8204 28.1554 38.5224H27.4794L27.7654 34.8044H36.0854V31.6584H24.8534L24.0474 41.7464H27.5314C28.2074 40.8364 29.1694 40.3944 30.4174 40.3944C32.2634 40.3944 33.5114 41.5644 33.5114 43.6444C33.5114 45.5944 32.2894 46.8684 30.3914 46.8684C28.6234 46.8684 27.5574 45.9844 27.3494 44.3204H23.6054C23.7094 46.0624 24.3594 47.4664 25.5814 48.5584C26.8034 49.6504 28.4674 50.1964 30.5214 50.1964C32.4714 50.1964 34.0834 49.5984 35.3574 48.3764C36.6314 47.1544 37.2554 45.5424 37.2554 43.5924C37.2554 41.7984 36.7094 40.3164 35.5914 39.1724C34.4734 38.0284 33.0954 37.4564 31.4314 37.4564ZM43.756 31.2944C40.974 31.2944 39.466 33.3224 39.466 36.2084C39.466 39.1204 40.974 41.1224 43.756 41.1224C46.564 41.1224 48.098 39.1204 48.098 36.2084C48.098 33.3224 46.564 31.2944 43.756 31.2944ZM45.68 36.2084C45.68 37.8984 45.03 38.9904 43.756 38.9904C42.482 38.9904 41.858 37.8984 41.858 36.2084C41.858 34.5444 42.482 33.4264 43.756 33.4264C45.03 33.4264 45.68 34.5444 45.68 36.2084ZM56.054 40.3684C53.246 40.3684 51.712 42.3964 51.712 45.2824C51.712 48.1944 53.246 50.1964 56.054 50.1964C58.836 50.1964 60.37 48.1944 60.37 45.2824C60.37 42.3964 58.836 40.3684 56.054 40.3684ZM57.978 45.2824C57.978 46.9724 57.328 48.0644 56.054 48.0644C54.78 48.0644 54.13 46.9724 54.13 45.2824C54.13 43.6184 54.78 42.5004 56.054 42.5004C57.328 42.5004 57.978 43.6184 57.978 45.2824ZM56.756 31.6584H54.13L43.106 49.8584H45.758L56.756 31.6584Z" fill="white"/>
<defs>
<clipPath id="clip0_433_200">
<rect width="80" height="80" fill="white" transform="translate(0.875 0.742188)"/>
</clipPath>
</defs>
</svg>
