<svg width="20" height="89" viewBox="0 0 20 89" fill="none" xmlns="http://www.w3.org/2000/svg">
<g clip-path="url(#clip0_433_105)">
<path d="M19.7683 5.65984L8.3081 17.1176C8.00094 17.4235 7.50367 17.4235 7.19775 17.1176L0.228464 10.1037C-0.0774566 9.79657 -0.0774566 9.29744 0.228464 8.99214L1.89369 7.32815C2.20084 7.02162 2.69812 7.02162 3.00404 7.32815L7.75881 12.1145L16.9909 2.88178C17.2968 2.57586 17.7941 2.57586 18.1025 2.88178L19.7677 4.54824C20.0767 4.85478 20.0767 5.35392 19.7683 5.65984Z" fill="#E53935"/>
</g>
<g clip-path="url(#clip1_433_105)">
<path d="M19.7683 39.945L8.3081 51.4028C8.00094 51.7087 7.50367 51.7087 7.19775 51.4028L0.228464 44.3889C-0.0774566 44.0817 -0.0774566 43.5826 0.228464 43.2773L1.89369 41.6133C2.20084 41.3068 2.69812 41.3068 3.00404 41.6133L7.75881 46.3997L16.9909 37.1669C17.2968 36.861 17.7941 36.861 18.1025 37.1669L19.7677 38.8334C20.0767 39.1399 20.0767 39.6391 19.7683 39.945Z" fill="#E53935"/>
</g>
<g clip-path="url(#clip2_433_105)">
<path d="M19.7683 74.2321L8.3081 85.6899C8.00094 85.9958 7.50367 85.9958 7.19775 85.6899L0.228464 78.676C-0.0774566 78.3688 -0.0774566 77.8697 0.228464 77.5644L1.89369 75.9004C2.20084 75.5939 2.69812 75.5939 3.00404 75.9004L7.75881 80.6868L16.9909 71.454C17.2968 71.1481 17.7941 71.1481 18.1025 71.454L19.7677 73.1205C20.0767 73.427 20.0767 73.9262 19.7683 74.2321Z" fill="#E53935"/>
</g>
<defs>
<clipPath id="clip0_433_105">
<rect width="20" height="20" fill="white"/>
</clipPath>
<clipPath id="clip1_433_105">
<rect width="20" height="20" fill="white" transform="translate(0 34.2852)"/>
</clipPath>
<clipPath id="clip2_433_105">
<rect width="20" height="20" fill="white" transform="translate(0 68.5723)"/>
</clipPath>
</defs>
</svg>
