<svg width="30" height="24" viewBox="0 0 30 24" fill="none" xmlns="http://www.w3.org/2000/svg">
<path d="M14.9975 5.51172C10.7487 5.51172 7.29199 8.96846 7.29199 13.2173C7.29199 17.4662 10.7487 20.9229 14.9975 20.9229C19.2463 20.9229 22.7031 17.4662 22.7031 13.2173C22.7031 8.96846 19.2465 5.51172 14.9975 5.51172ZM14.9975 19.696C11.4252 19.696 8.51883 16.7897 8.51883 13.2173C8.51883 9.64486 11.4251 6.7385 14.9975 6.7385C18.5699 6.7385 21.4762 9.64486 21.4762 13.2173C21.4762 16.7897 18.5699 19.696 14.9975 19.696Z" fill="#1168AC"/>
<path d="M15.0032 8.4082C12.3521 8.4082 10.1953 10.565 10.1953 13.2161C10.1953 15.8672 12.3521 18.0239 15.0032 18.0239C17.6543 18.0239 19.8111 15.8671 19.8111 13.2161C19.8111 10.5651 17.6543 8.4082 15.0032 8.4082ZM15.0032 16.8616C12.993 16.8616 11.3576 15.2263 11.3576 13.2161C11.3576 11.2059 12.993 9.57053 15.0032 9.57053C17.0134 9.57053 18.6488 11.2059 18.6488 13.2161C18.6489 15.2263 17.0135 16.8616 15.0032 16.8616Z" fill="#1168AC"/>
<path d="M28.0628 3.27762H20.164L19.3573 1.08035C19.1201 0.434121 18.4982 0 17.8098 0H12.1902C11.5018 0 10.8799 0.43418 10.6427 1.08035L9.8359 3.27756H7.15195V2.41646C7.15195 1.72219 6.58717 1.15729 5.89277 1.15729H4.03418C3.3399 1.15729 2.775 1.72219 2.775 2.41646V3.27762H1.93717C0.869004 3.27762 0 4.14662 0 5.21479V21.2196C0 22.2877 0.869004 23.1567 1.93717 23.1567H28.0628C29.131 23.1567 30 22.2877 30 21.2196V5.21479C30 4.14662 29.131 3.27762 28.0628 3.27762ZM11.8549 1.52549C11.9063 1.38551 12.041 1.29146 12.1901 1.29146H17.8097C17.9589 1.29146 18.0936 1.38551 18.145 1.52549L18.7883 3.27762H11.2116L11.8549 1.52549ZM4.00195 2.41646C4.00195 2.39871 4.01643 2.38418 4.03424 2.38418H5.89283C5.91064 2.38418 5.92512 2.39871 5.92512 2.41646V3.27762H4.00195V2.41646ZM1.29146 8.16428H3.20414V18.2699H1.29146V8.16428ZM28.7085 21.2196C28.7085 21.5756 28.4188 21.8653 28.0628 21.8653H1.93717C1.58109 21.8653 1.29146 21.5756 1.29146 21.2196V19.5614H3.84984C4.20645 19.5614 4.49555 19.2722 4.49555 18.9157V7.51857C4.49555 7.16203 4.20645 6.87287 3.84984 6.87287H1.29146V5.21473C1.29146 4.85865 1.58115 4.56902 1.93717 4.56902H19.7084C19.7101 4.56902 19.7117 4.5692 19.7133 4.5692C19.7147 4.5692 19.7163 4.56902 19.7177 4.56902H28.0628C28.4189 4.56902 28.7085 4.85871 28.7085 5.21473V6.87287H26.1502C25.7935 6.87287 25.5045 7.16203 25.5045 7.51857V18.9157C25.5045 19.2722 25.7936 19.5614 26.1502 19.5614H28.7085V21.2196H28.7085ZM28.7085 18.2699H26.7959V8.16428H28.7085V18.2699Z" fill="#1168AC"/>
<path d="M15.0065 10.8398C13.6966 10.8398 12.6309 11.9056 12.6309 13.2155C12.6309 13.5365 12.891 13.7966 13.212 13.7966C13.533 13.7966 13.7931 13.5365 13.7931 13.2155C13.7931 12.5465 14.3374 12.0022 15.0064 12.0022C15.3274 12.0022 15.5875 11.742 15.5875 11.421C15.5875 11.1001 15.3275 10.8398 15.0065 10.8398Z" fill="#1168AC"/>
</svg>
