<svg width="14" height="222" viewBox="0 0 14 222" fill="none" xmlns="http://www.w3.org/2000/svg">
<g clip-path="url(#clip0_433_655)">
<path d="M13.8375 3.96218L5.81538 11.9826C5.60037 12.1968 5.25227 12.1968 5.03813 11.9826L0.159632 7.0729C-0.0545126 6.85789 -0.0545126 6.5085 0.159632 6.29479L1.32529 5.13C1.5403 4.91542 1.88839 4.91542 2.10253 5.13L5.43087 8.48045L11.8933 2.01754C12.1075 1.8034 12.4556 1.8034 12.6715 2.01754L13.8371 3.18406C14.0534 3.39864 14.0534 3.74803 13.8375 3.96218Z" fill="#E53935"/>
</g>
<g clip-path="url(#clip1_433_655)">
<path d="M13.8375 29.9622L5.81538 37.9826C5.60037 38.1968 5.25227 38.1968 5.03813 37.9826L0.159632 33.0729C-0.0545126 32.8579 -0.0545126 32.5085 0.159632 32.2948L1.32529 31.13C1.5403 30.9154 1.88839 30.9154 2.10253 31.13L5.43087 34.4804L11.8933 28.0175C12.1075 27.8034 12.4556 27.8034 12.6715 28.0175L13.8371 29.1841C14.0534 29.3986 14.0534 29.748 13.8375 29.9622Z" fill="#E53935"/>
</g>
<g clip-path="url(#clip2_433_655)">
<path d="M13.8375 55.9622L5.81538 63.9826C5.60037 64.1968 5.25227 64.1968 5.03813 63.9826L0.159632 59.0729C-0.0545126 58.8579 -0.0545126 58.5085 0.159632 58.2948L1.32529 57.13C1.5403 56.9154 1.88839 56.9154 2.10253 57.13L5.43087 60.4804L11.8933 54.0175C12.1075 53.8034 12.4556 53.8034 12.6715 54.0175L13.8371 55.1841C14.0534 55.3986 14.0534 55.748 13.8375 55.9622Z" fill="#E53935"/>
</g>
<g clip-path="url(#clip3_433_655)">
<path d="M13.8375 81.9622L5.81538 89.9826C5.60037 90.1968 5.25227 90.1968 5.03813 89.9826L0.159632 85.0729C-0.0545126 84.8579 -0.0545126 84.5085 0.159632 84.2948L1.32529 83.13C1.5403 82.9154 1.88839 82.9154 2.10253 83.13L5.43087 86.4804L11.8933 80.0175C12.1075 79.8034 12.4556 79.8034 12.6715 80.0175L13.8371 81.1841C14.0534 81.3986 14.0534 81.748 13.8375 81.9622Z" fill="#E53935"/>
</g>
<g clip-path="url(#clip4_433_655)">
<path d="M13.8375 107.962L5.81538 115.983C5.60037 116.197 5.25227 116.197 5.03813 115.983L0.159632 111.073C-0.0545126 110.858 -0.0545126 110.509 0.159632 110.295L1.32529 109.13C1.5403 108.915 1.88839 108.915 2.10253 109.13L5.43087 112.48L11.8933 106.018C12.1075 105.803 12.4556 105.803 12.6715 106.018L13.8371 107.184C14.0534 107.399 14.0534 107.748 13.8375 107.962Z" fill="#E53935"/>
</g>
<g clip-path="url(#clip5_433_655)">
<path d="M13.8375 133.962L5.81538 141.983C5.60037 142.197 5.25227 142.197 5.03813 141.983L0.159632 137.073C-0.0545126 136.858 -0.0545126 136.509 0.159632 136.295L1.32529 135.13C1.5403 134.915 1.88839 134.915 2.10253 135.13L5.43087 138.48L11.8933 132.018C12.1075 131.803 12.4556 131.803 12.6715 132.018L13.8371 133.184C14.0534 133.399 14.0534 133.748 13.8375 133.962Z" fill="#E53935"/>
</g>
<g clip-path="url(#clip6_433_655)">
<path d="M13.8375 159.962L5.81538 167.983C5.60037 168.197 5.25227 168.197 5.03813 167.983L0.159632 163.073C-0.0545126 162.858 -0.0545126 162.509 0.159632 162.295L1.32529 161.13C1.5403 160.915 1.88839 160.915 2.10253 161.13L5.43087 164.48L11.8933 158.018C12.1075 157.803 12.4556 157.803 12.6715 158.018L13.8371 159.184C14.0534 159.399 14.0534 159.748 13.8375 159.962Z" fill="#E53935"/>
</g>
<g clip-path="url(#clip7_433_655)">
<path d="M13.8375 185.962L5.81538 193.983C5.60037 194.197 5.25227 194.197 5.03813 193.983L0.159632 189.073C-0.0545126 188.858 -0.0545126 188.509 0.159632 188.295L1.32529 187.13C1.5403 186.915 1.88839 186.915 2.10253 187.13L5.43087 190.48L11.8933 184.018C12.1075 183.803 12.4556 183.803 12.6715 184.018L13.8371 185.184C14.0534 185.399 14.0534 185.748 13.8375 185.962Z" fill="#E53935"/>
</g>
<g clip-path="url(#clip8_433_655)">
<path d="M13.8375 211.962L5.81538 219.983C5.60037 220.197 5.25227 220.197 5.03813 219.983L0.159632 215.073C-0.0545126 214.858 -0.0545126 214.509 0.159632 214.295L1.32529 213.13C1.5403 212.915 1.88839 212.915 2.10253 213.13L5.43087 216.48L11.8933 210.018C12.1075 209.803 12.4556 209.803 12.6715 210.018L13.8371 211.184C14.0534 211.399 14.0534 211.748 13.8375 211.962Z" fill="#E53935"/>
</g>
<defs>
<clipPath id="clip0_433_655">
<rect width="14" height="14" fill="white"/>
</clipPath>
<clipPath id="clip1_433_655">
<rect width="14" height="14" fill="white" transform="translate(0 26)"/>
</clipPath>
<clipPath id="clip2_433_655">
<rect width="14" height="14" fill="white" transform="translate(0 52)"/>
</clipPath>
<clipPath id="clip3_433_655">
<rect width="14" height="14" fill="white" transform="translate(0 78)"/>
</clipPath>
<clipPath id="clip4_433_655">
<rect width="14" height="14" fill="white" transform="translate(0 104)"/>
</clipPath>
<clipPath id="clip5_433_655">
<rect width="14" height="14" fill="white" transform="translate(0 130)"/>
</clipPath>
<clipPath id="clip6_433_655">
<rect width="14" height="14" fill="white" transform="translate(0 156)"/>
</clipPath>
<clipPath id="clip7_433_655">
<rect width="14" height="14" fill="white" transform="translate(0 182)"/>
</clipPath>
<clipPath id="clip8_433_655">
<rect width="14" height="14" fill="white" transform="translate(0 208)"/>
</clipPath>
</defs>
</svg>
